<svg width="18" height="19" viewBox="0 0 18 19" fill="none" xmlns="http://www.w3.org/2000/svg">
<path d="M5.4 5.15V0.75M12 5.15V0.75M5.8125 8.7921C5.8125 7.13 8.7 7.13 8.7 8.7921C8.6742 9.27141 8.45447 9.7196 8.09135 10.0335C7.72824 10.3475 7.25301 10.5001 6.775 10.4564C7.25283 10.4127 7.7279 10.5652 8.09098 10.8789C8.45406 11.1926 8.67391 11.6405 8.7 12.1196C8.7 13.7839 5.8125 13.7839 5.8125 12.1196M10.625 8.3796L11.5875 7.548V13.3714M1 8.45V11.75C1 14.7876 3.46244 17.25 6.5 17.25H10.9C12.3587 17.25 13.7576 16.6705 14.7891 15.6391C15.8205 14.6076 16.4 13.2087 16.4 11.75V8.45C16.4015 6.99087 15.8225 5.59107 14.7907 4.5593C13.7589 3.52753 12.3591 2.94854 10.9 2.95H6.5C5.04086 2.94854 3.64107 3.52753 2.6093 4.5593C1.57753 5.59107 0.998541 6.99087 1 8.45Z" stroke="#8784FB" stroke-width="1.65" stroke-linecap="round" stroke-linejoin="round"/>
</svg>
