<svg width="16" height="16" viewBox="0 0 16 16" fill="none" xmlns="http://www.w3.org/2000/svg">
<path d="M4.90022 10.9294C3.75813 11.0497 2.6517 11.3975 1.64622 11.9524C0.975217 12.3974 0.821217 12.8994 1.21022 13.3744C1.93315 14.0154 2.82864 14.4295 3.78522 14.5654C5.16749 14.8799 6.58287 15.0253 8.00022 14.9984C9.41753 15.0256 10.8329 14.8806 12.2152 14.5664C13.1718 14.4305 14.0673 14.0164 14.7902 13.3754C15.1792 12.9004 15.0252 12.3984 14.3542 11.9534C13.3488 11.3982 12.2424 11.05 11.1002 10.9294M8.00022 10.6254L5.03022 7.80638C4.24571 7.07843 3.7999 6.05659 3.7999 4.98638C3.7999 3.91616 4.24571 2.89432 5.03022 2.16638C6.70398 0.60901 9.29645 0.60901 10.9702 2.16638C11.7547 2.89432 12.2005 3.91616 12.2005 4.98638C12.2005 6.05659 11.7547 7.07843 10.9702 7.80638L8.00022 10.6254ZM8.00022 6.49838C7.24328 6.48517 6.63919 5.86299 6.64832 5.10599C6.65745 4.34899 7.27638 3.74156 8.03341 3.74662C8.79045 3.75168 9.4012 4.36732 9.40022 5.12438C9.39252 5.89018 8.76603 6.50504 8.00022 6.49838Z" stroke="#8784FB" stroke-width="1.5" stroke-linecap="round" stroke-linejoin="round"/>
</svg>
