<svg width="17" height="18" viewBox="0 0 17 18" fill="none" xmlns="http://www.w3.org/2000/svg">
<g clip-path="url(#clip0_232_94)">
<path d="M6.36707 10.901L8.08531 9.18274M8.08531 9.18274L9.80364 7.46447M8.08531 9.18274L6.36707 7.46447M8.08531 9.18274L9.80364 10.901M2.4213 14.0427L0.906893 3.44189C0.847034 3.02288 1.12035 2.63184 1.53353 2.54002L7.73984 1.16083C7.97134 1.10939 8.21126 1.10939 8.44276 1.16083L14.6491 2.54002C15.0622 2.63184 15.3355 3.02288 15.2757 3.44188L13.7613 14.0427C13.704 14.4437 13.3563 16.8777 8.0913 16.8777C2.8263 16.8777 2.47858 14.4437 2.4213 14.0427Z" stroke="#FB6A93" stroke-linecap="round" stroke-linejoin="round"/>
</g>
<defs>
<clipPath id="clip0_232_94">
<rect width="16.0885" height="17.3755" fill="white" transform="translate(0.088623 0.312256)"/>
</clipPath>
</defs>
</svg>
