<svg width="18" height="18" viewBox="0 0 18 18" fill="none" xmlns="http://www.w3.org/2000/svg">
<path d="M11.9221 6.57002C11.6984 6.57002 11.5171 6.3887 11.5171 6.16502C11.5171 5.94135 11.6984 5.76003 11.9221 5.76003C12.1457 5.76003 12.3271 5.94135 12.3271 6.16502C12.3271 6.3887 12.1457 6.57002 11.9221 6.57002Z" fill="#FB6A93"/>
<path d="M6.25206 6.57002C6.02839 6.57002 5.84706 6.3887 5.84706 6.16502C5.84706 5.94135 6.02839 5.76003 6.25206 5.76003C6.47573 5.76003 6.65706 5.94135 6.65706 6.16502C6.65706 6.3887 6.47573 6.57002 6.25206 6.57002Z" fill="#FB6A93"/>
<path d="M11.9221 6.57002C11.6984 6.57002 11.5171 6.3887 11.5171 6.16502C11.5171 5.94135 11.6984 5.76003 11.9221 5.76003C12.1457 5.76003 12.3271 5.94135 12.3271 6.16502C12.3271 6.3887 12.1457 6.57002 11.9221 6.57002Z" stroke="#FB6A93" stroke-linecap="round" stroke-linejoin="round"/>
<path d="M6.25206 6.57002C6.02839 6.57002 5.84706 6.3887 5.84706 6.16502C5.84706 5.94135 6.02839 5.76003 6.25206 5.76003C6.47573 5.76003 6.65706 5.94135 6.65706 6.16502C6.65706 6.3887 6.47573 6.57002 6.25206 6.57002Z" stroke="#FB6A93" stroke-linecap="round" stroke-linejoin="round"/>
</svg>
